<svg width="38" height="38" viewBox="0 0 38 38" fill="none" xmlns="http://www.w3.org/2000/svg">
<path d="M21.8433 35.4548L19.9605 37.3865C19.1633 38.2045 17.8741 38.2045 17.0854 37.3865L0.597924 20.4793C-0.199308 19.6613 -0.199308 18.3387 0.597924 17.5294L17.0854 0.613465C17.8826 -0.204488 19.1717 -0.204488 19.9605 0.613465L21.8433 2.54523C22.649 3.37188 22.6321 4.72063 21.8094 5.52988L11.5896 15.5194H35.9645C37.0925 15.5194 38 16.4504 38 17.6077V20.3923C38 21.5496 37.0925 22.4807 35.9645 22.4807H11.5896L21.8094 32.4701C22.6406 33.2794 22.6575 34.6281 21.8433 35.4548Z" fill="white"/>
</svg>
