<svg width="38" height="38" viewBox="0 0 38 38" fill="none" xmlns="http://www.w3.org/2000/svg">
<path d="M16.1567 35.4548L18.0395 37.3865C18.8367 38.2045 20.1259 38.2045 20.9146 37.3865L37.4021 20.4793C38.1993 19.6613 38.1993 18.3387 37.4021 17.5294L20.9146 0.613465C20.1174 -0.204488 18.8283 -0.204488 18.0395 0.613465L16.1567 2.54523C15.351 3.37188 15.3679 4.72063 16.1906 5.52988L26.4104 15.5194H2.03549C0.90749 15.5194 0 16.4504 0 17.6077V20.3923C0 21.5496 0.90749 22.4807 2.03549 22.4807H26.4104L16.1906 32.4701C15.3594 33.2794 15.3425 34.6281 16.1567 35.4548Z" fill="white"/>
</svg>
