<svg width="60" height="80" viewBox="0 0 60 80" fill="none" xmlns="http://www.w3.org/2000/svg">
<path d="M32.9086 22.9724L32.9124 23.6712C32.9124 26.5758 32.697 29.2238 32.3724 30.95L32.0881 32.0234C31.9299 32.5919 31.722 33.2393 31.5052 33.5697C30.7115 34.7785 29.1597 35.5264 27.4988 35.5264H27.3543C26.2716 35.4981 23.9971 34.7481 23.9971 34.722C20.3371 33.5096 13.2761 29.8506 10.015 27.2421L9.06732 26.4589C8.81916 26.2466 8.54035 25.9954 8.36726 25.7996C7.78909 25.1952 7.5 24.4474 7.5 23.6995C7.5 22.8646 7.82454 22.0885 8.43817 21.4537L9.41182 20.6241L9.62997 20.4471C12.589 17.9143 20.3153 13.7727 24.3571 12.5053L24.9673 12.3206C25.7016 12.1128 26.7304 11.865 27.3543 11.8422C28.1479 11.8422 28.9061 11.9878 29.6288 12.2748C30.5315 12.677 31.2515 13.3118 31.6497 14.0597C31.9033 14.5771 32.3015 16.1316 32.3015 16.1598C32.6665 17.7272 32.8782 20.2004 32.9086 22.9724ZM52.5 23.6851C52.5 25.3396 50.8173 26.681 48.7419 26.681L39.4938 26.0353C37.8656 26.0353 36.5456 24.9831 36.5456 23.6851C36.5456 22.385 37.8656 21.335 39.4938 21.335L48.7419 20.6893C50.8173 20.6893 52.5 22.0307 52.5 23.6851Z" fill="white"/>
<path d="M27.0914 55.3408L27.0876 56.0396C27.0876 58.9442 27.303 61.5922 27.6276 63.3184L27.9119 64.3918C28.0701 64.9603 28.278 65.6077 28.4948 65.9381C29.2885 67.1469 30.8403 67.8948 32.5012 67.8948H32.6457C33.7284 67.8665 36.0029 67.1165 36.0029 67.0904C39.6629 65.878 46.7239 62.219 49.985 59.6105L50.9327 58.8273C51.1808 58.6151 51.4596 58.3638 51.6327 58.168C52.2109 57.5636 52.5 56.8158 52.5 56.0679C52.5 55.2331 52.1755 54.4569 51.5618 53.8221L50.5882 52.9925L50.37 52.8155C47.411 50.2827 39.6847 46.1411 35.6429 44.8737L35.0327 44.689C34.2984 44.4812 33.2696 44.2334 32.6457 44.2106C31.8521 44.2106 31.0939 44.3562 30.3712 44.6432C29.4685 45.0454 28.7485 45.6802 28.3503 46.4281C28.0967 46.9455 27.6985 48.5 27.6985 48.5283C27.3335 50.0956 27.1218 52.5688 27.0914 55.3408ZM7.5 56.0535C7.5 57.708 9.1827 59.0494 11.2581 59.0494L20.5062 58.4037C22.1344 58.4037 23.4544 57.3515 23.4544 56.0535C23.4544 54.7535 22.1344 53.7034 20.5062 53.7034L11.2581 53.0577C9.1827 53.0577 7.5 54.3991 7.5 56.0535Z" fill="white"/>
</svg>
