<svg width="61" height="63" viewBox="0 0 61 63" fill="none" xmlns="http://www.w3.org/2000/svg">
<path d="M59.7968 30.9976C58.8116 27.3092 57.5932 23.7318 55.9058 20.4098L55.5977 19.7853C55.4895 19.5772 55.3674 19.3829 55.2536 19.1803L54.5709 17.9703L53.816 16.8046C53.6911 16.6104 53.5718 16.4133 53.4386 16.2246L53.0278 15.6695C51.9621 14.1625 50.741 12.7777 49.4171 11.5038C49.0897 11.1846 48.7622 10.8572 48.4041 10.5685L47.8824 10.1189C47.7075 9.96905 47.5355 9.81918 47.3495 9.68042L46.2561 8.8395L45.121 8.05131C43.5834 7.03555 41.9543 6.15022 40.2586 5.39256C38.5601 4.63767 36.8006 3.99658 34.9911 3.50813C34.0891 3.2417 33.1705 3.04188 32.2435 2.85038C31.9688 2.7921 31.694 2.74214 31.4192 2.69219C31.2999 2.66998 31.1806 2.65333 31.0612 2.6339C30.9891 2.6228 30.9169 2.6117 30.8448 2.59783C30.7976 2.5895 30.7504 2.58117 30.7032 2.57562V2.32307C30.8226 2.31751 30.9447 2.31752 31.0612 2.31752C31.1806 2.31197 31.2999 2.31197 31.4192 2.31752C31.7162 2.32029 32.0104 2.32584 32.3046 2.33972C32.6543 2.35359 33.004 2.3758 33.3536 2.40633C33.9614 2.45629 34.5692 2.53121 35.177 2.61725C36.1317 2.75601 37.0781 2.96139 38.0217 3.18341C38.9598 3.42487 39.8895 3.7024 40.8026 4.03544C42.6315 4.69318 44.4022 5.54243 46.0729 6.56374C47.7436 7.58228 49.2922 8.80342 50.7077 10.1605L51.2377 10.674C51.4181 10.8405 51.5736 11.032 51.7401 11.2096C52.0676 11.5732 52.4089 11.9256 52.7225 12.3031L53.6328 13.4576C53.7883 13.6463 53.927 13.8489 54.063 14.0488L54.4793 14.6538L54.8928 15.2588C55.0233 15.4642 55.1426 15.6779 55.2675 15.8888C55.5145 16.3079 55.7615 16.7297 56.0002 17.1543L56.6496 18.4615C56.7523 18.6808 56.8661 18.8972 56.9632 19.1193L57.2407 19.7936C58.72 23.3821 59.5803 27.1843 59.7968 30.9976Z" fill="#F7528E"/>
<path d="M27.7614 2.33435V2.80893C27.692 2.8228 27.6227 2.83669 27.5533 2.85056C27.5033 2.85889 27.4534 2.87276 27.4034 2.88109C27.2841 2.90606 27.1647 2.93104 27.0454 2.9588C26.2933 3.11699 25.5412 3.29184 24.8057 3.50831C22.9935 3.99676 21.2339 4.63786 19.5382 5.39274C17.8397 6.14762 16.2106 7.03295 14.6758 8.05149L13.5407 8.83968L12.4473 9.6806C12.2641 9.81936 12.0893 9.96923 11.9144 10.1191L11.3926 10.5687C11.0346 10.8573 10.7099 11.1848 10.3797 11.504C9.05583 12.7778 7.83471 14.1627 6.76899 15.6697L6.35823 16.2248C6.22501 16.4135 6.10568 16.6106 5.98079 16.8048L5.2259 17.9705L4.54318 19.1805C4.42939 19.3831 4.30451 19.5801 4.19905 19.7855L3.89097 20.41C2.20359 23.732 0.985235 27.3094 0 30.9978C0.216474 27.1845 1.07404 23.3823 2.55883 19.7938L2.83636 19.1194C2.93072 18.8974 3.04728 18.6809 3.14997 18.4617L3.7994 17.1545C4.03808 16.7299 4.28507 16.308 4.53207 15.889C4.65696 15.678 4.77631 15.4643 4.90675 15.259L5.32027 14.654L5.73656 14.0489C5.87533 13.8491 6.01131 13.6465 6.16673 13.4578L7.07704 12.3033C7.39065 11.9258 7.73201 11.5734 8.0595 11.2098C8.22601 11.0294 8.38421 10.8379 8.56183 10.6742L9.09192 10.1607C10.5073 8.8036 12.0559 7.58246 13.7267 6.56392C15.3974 5.54261 17.1681 4.69337 18.997 4.03562C19.9101 3.70536 20.8398 3.42505 21.7779 3.1836C22.7215 2.96157 23.6651 2.75619 24.6225 2.61743C25.2276 2.52862 25.8381 2.45647 26.4459 2.40651C26.6458 2.38986 26.8456 2.37598 27.0509 2.36488C27.1703 2.35656 27.2896 2.351 27.409 2.34545C27.4395 2.34268 27.4672 2.34267 27.4978 2.3399C27.5838 2.33712 27.6726 2.33435 27.7614 2.33435Z" fill="#F7528E"/>
<path d="M42.5845 38.8879L36.798 54.2632H20.7872L15.1922 38.4467L25.3082 10.6686H28.3527V33.8702C27.0011 34.2587 26.0131 35.4993 26.0131 36.9757C26.0131 38.763 27.4591 40.209 29.2464 40.209C31.0281 40.209 32.4768 38.763 32.4768 36.9757C32.4768 35.4993 31.4916 34.2615 30.14 33.8702V10.6686H33.2983L42.5845 38.8879Z" fill="#F7528E"/>
<path d="M42.5845 38.8879L36.798 54.2632H20.7872L15.1922 38.4467L25.3082 10.6686H28.3527V33.8702C27.0011 34.2587 26.0131 35.4993 26.0131 36.9757C26.0131 38.763 27.4591 40.209 29.2464 40.209C31.0281 40.209 32.4768 38.763 32.4768 36.9757C32.4768 35.4993 31.4916 34.2615 30.14 33.8702V10.6686H33.2983L42.5845 38.8879Z" fill="url(#paint0_linear_1629_2)"/>
<path d="M36.4232 57.1439H21.3782V62.75H36.4232V57.1439Z" fill="#08CCCC"/>
<path d="M36.4232 57.1439H21.3782V62.75H36.4232V57.1439Z" fill="url(#paint1_linear_1629_2)"/>
<path d="M2.96122 2.40374C2.96122 3.21968 2.29792 3.88297 1.48197 3.88297C0.666034 3.88297 0.00274658 3.21968 0.00274658 2.40374C0.00274658 1.5878 0.666034 0.9245 1.48197 0.9245C2.29792 0.9245 2.96122 1.5878 2.96122 2.40374Z" fill="#13DBF7"/>
<path d="M60.6379 2.40374C60.6379 3.21968 59.9746 3.88297 59.1587 3.88297C58.3427 3.88297 57.6794 3.21968 57.6794 2.40374C57.6794 1.5878 58.3427 0.9245 59.1587 0.9245C59.9746 0.9245 60.6379 1.5878 60.6379 2.40374Z" fill="#13DBF7"/>
<path d="M58.1705 1.84857H30.7033V2.9587H58.1705V1.84857Z" fill="#13DBF7"/>
<path d="M27.7642 1.84857H0.299675V2.9587H27.7642V1.84857Z" fill="#13DBF7"/>
<path d="M27.4064 0.580322V4.22985H31.0614V0.580322H27.4064ZM30.7034 3.87185H27.7644V0.935562H30.7034V3.87185Z" fill="#FFE6FE"/>
<path d="M27.0482 0.22229V4.58785H31.4165V0.22229H27.0482ZM30.7033 3.87182H27.7642V0.935538H30.7033V3.87182Z" fill="#13DBF7"/>
<defs>
<linearGradient id="paint0_linear_1629_2" x1="9.27739" y1="2.4138" x2="47.8827" y2="46.47" gradientUnits="userSpaceOnUse">
<stop offset="0.181437" stop-color="#3C9DEC"/>
<stop offset="0.644519" stop-color="#FE007A"/>
<stop offset="1" stop-color="#B991EA"/>
</linearGradient>
<linearGradient id="paint1_linear_1629_2" x1="2.80584" y1="53.0448" x2="1.36062" y2="69.1071" gradientUnits="userSpaceOnUse">
<stop stop-color="#3BC3E1"/>
<stop offset="0.491416" stop-color="#1C32FF"/>
<stop offset="0.984375" stop-color="#FF6DCE"/>
</linearGradient>
</defs>
</svg>
