<svg width="60" height="60" viewBox="0 0 60 60" fill="none" xmlns="http://www.w3.org/2000/svg">
<path d="M52.2334 5.7967H58.1569V52.8146H52.2334V5.7967ZM40.4384 7.49845L39.6182 7.75324C38.5915 8.07774 37.3847 7.62584 36.9696 6.76578C36.7706 6.34937 36.7611 5.88923 36.9436 5.46839C37.1553 4.98163 37.6053 4.60071 38.1763 4.42262L47.4241 1.54199L48.5498 9.78203C48.6131 10.2016 48.4952 10.6301 48.217 10.985C47.8767 11.421 47.3297 11.7037 46.7162 11.762C46.6427 11.7696 46.5603 11.7734 46.481 11.7734C45.4346 11.7734 44.546 11.1067 44.4142 10.2244L44.2716 8.97774C33.5838 23.7764 8.97271 39.6372 7.90476 40.3204C7.54223 40.5524 7.10871 40.676 6.64984 40.676C6.03125 40.676 5.44942 40.4478 5.05456 40.0479C4.69139 39.6822 4.52153 39.2157 4.57414 38.7366C4.62928 38.239 4.9278 37.7814 5.39428 37.4848C5.64463 37.3238 30.0212 21.5657 40.4384 7.49845ZM47.4457 16.2398V52.8133H41.5234V16.2398H47.4457ZM37.0887 27.1076V52.8146H31.1646V27.1076H37.0887ZM26.3769 38.3975V52.8127H20.454V38.3975H26.3769ZM15.0528 44.0453V52.8133H9.13053V44.0453H15.0528ZM59.9994 58.4579H0V54.0631H60L59.9994 58.4579Z" fill="white"/>
</svg>
