<svg width="59" height="59" viewBox="0 0 59 59" fill="none" xmlns="http://www.w3.org/2000/svg">
<path d="M58.3623 39.8276C58.036 42.0439 57.3105 44.2086 56.2803 46.2184C56.0079 46.7127 55.7355 47.2071 55.4497 47.6959L54.5112 49.1083C54.1687 49.5564 53.8181 50.0018 53.4648 50.4445C53.0872 50.8655 52.7123 51.2919 52.3294 51.7048C51.9195 52.0932 51.5149 52.4897 51.0969 52.8699C50.66 53.2285 50.2339 53.6006 49.7862 53.9455C49.3224 54.2687 48.8666 54.6 48.3973 54.9124C47.9146 55.2057 47.4345 55.5018 46.9437 55.7706C44.9642 56.8408 42.8256 57.6012 40.633 57.9625C42.7231 57.2074 44.7161 56.2677 46.5661 55.1107C46.7981 54.9694 47.0192 54.8065 47.2457 54.6544L47.9254 54.2008C48.365 53.8803 48.7911 53.5408 49.2253 53.2122L50.4685 52.1556C50.865 51.7835 51.2479 51.3979 51.639 51.0203C52.0138 50.6265 52.3779 50.2218 52.7474 49.8226L53.7776 48.5542L54.7377 47.2288C55.0262 46.7671 55.3202 46.3053 55.6196 45.8463C56.7442 43.9669 57.6476 41.9461 58.3623 39.8276Z" fill="#F7528E"/>
<path d="M58.3623 39.8276C58.036 42.0439 57.3105 44.2086 56.2803 46.2184C56.0079 46.7127 55.7355 47.2071 55.4497 47.6959L54.5112 49.1083C54.1687 49.5564 53.8181 50.0018 53.4648 50.4445C53.0872 50.8655 52.7123 51.2919 52.3294 51.7048C51.9195 52.0932 51.5149 52.4897 51.0969 52.8699C50.66 53.2285 50.2339 53.6006 49.7862 53.9455C49.3224 54.2687 48.8666 54.6 48.3973 54.9124C47.9146 55.2057 47.4345 55.5018 46.9437 55.7706C44.9642 56.8408 42.8256 57.6012 40.633 57.9625C42.7231 57.2074 44.7161 56.2677 46.5661 55.1107C46.7981 54.9694 47.0192 54.8065 47.2457 54.6544L47.9254 54.2008C48.365 53.8803 48.7911 53.5408 49.2253 53.2122L50.4685 52.1556C50.865 51.7835 51.2479 51.3979 51.639 51.0203C52.0138 50.6265 52.3779 50.2218 52.7474 49.8226L53.7776 48.5542L54.7377 47.2288C55.0262 46.7671 55.3202 46.3053 55.6196 45.8463C56.7442 43.9669 57.6476 41.9461 58.3623 39.8276Z" fill="url(#paint0_linear_1331_1056)"/>
<path d="M35.9297 54.5484L35.393 52.4435C43.8019 50.2626 50.2986 43.6192 52.3456 35.1045L53.3893 35.3598H54.4734V35.4929L54.4438 35.6178C52.2053 44.912 45.1126 52.1665 35.9297 54.5484Z" fill="#F7528E"/>
<path d="M35.9297 54.5484L35.393 52.4435C43.8019 50.2626 50.2986 43.6192 52.3456 35.1045L53.3893 35.3598H54.4734V35.4929L54.4438 35.6178C52.2053 44.912 45.1126 52.1665 35.9297 54.5484Z" fill="url(#paint1_linear_1331_1056)"/>
<path d="M24.3331 54.85C14.6352 52.851 6.87356 45.3005 4.55695 35.6179L6.65509 35.11C8.77484 43.9778 15.8838 50.8928 24.7673 52.7234L24.3331 54.85Z" fill="#F7528E"/>
<path d="M24.3331 54.85C14.6352 52.851 6.87356 45.3005 4.55695 35.6179L6.65509 35.11C8.77484 43.9778 15.8838 50.8928 24.7673 52.7234L24.3331 54.85Z" fill="url(#paint2_linear_1331_1056)"/>
<path d="M52.413 24.2812C50.4658 15.6171 43.9448 8.84611 35.3903 6.61354L35.9323 4.51135C45.2716 6.95033 52.3941 14.3406 54.5192 23.8032L52.413 24.2812Z" fill="#F7528E"/>
<path d="M52.413 24.2812C50.4658 15.6171 43.9448 8.84611 35.3903 6.61354L35.9323 4.51135C45.2716 6.95033 52.3941 14.3406 54.5192 23.8032L52.413 24.2812Z" fill="url(#paint3_linear_1331_1056)"/>
<path d="M6.57414 24.2812L5.52775 24.0422H4.4436V23.9172L4.47057 23.7977C6.69819 13.925 14.4949 6.2387 24.3331 4.21527L24.7646 6.34463C15.7543 8.19966 8.61568 15.2396 6.57414 24.2812Z" fill="#F7528E"/>
<path d="M6.57414 24.2812L5.52775 24.0422H4.4436V23.9172L4.47057 23.7977C6.69819 13.925 14.4949 6.2387 24.3331 4.21527L24.7646 6.34463C15.7543 8.19966 8.61568 15.2396 6.57414 24.2812Z" fill="url(#paint4_linear_1331_1056)"/>
<path d="M0.967346 18.7568C1.29097 16.4047 2.05419 14.1043 3.15721 11.9803C3.44847 11.4589 3.73975 10.9347 4.04719 10.4186C4.3843 9.92432 4.71332 9.42186 5.05582 8.93026C5.4253 8.46039 5.80014 7.99052 6.1831 7.52879C6.59303 7.09152 6.99218 6.64337 7.41019 6.21424C7.85248 5.81227 8.28936 5.39672 8.74243 5.00561C9.21439 4.63895 9.67286 4.25057 10.1583 3.9002C10.6599 3.57156 11.1481 3.22935 11.6578 2.91701C12.1783 2.62368 12.6934 2.32219 13.2273 2.05603C15.3606 0.991347 17.661 0.277034 19.9992 0C17.7446 0.676288 15.5871 1.57258 13.5834 2.7296C13.3298 2.86812 13.0925 3.03651 12.8471 3.18589L12.1109 3.64218C11.6308 3.96267 11.1723 4.31304 10.7031 4.64711C10.25 5.0029 9.80771 5.37228 9.36003 5.73351C8.92853 6.11647 8.51862 6.52116 8.09521 6.91226C7.68798 7.31966 7.29962 7.74608 6.90048 8.16163C6.52292 8.59891 6.16693 9.05248 5.79207 9.49248L4.76454 10.8885C4.4544 11.3774 4.14426 11.8663 3.82603 12.3524C2.62322 14.346 1.68472 16.4998 0.967346 18.7568Z" fill="#F7528E"/>
<path d="M0.967346 18.7568C1.29097 16.4047 2.05419 14.1043 3.15721 11.9803C3.44847 11.4589 3.73975 10.9347 4.04719 10.4186C4.3843 9.92432 4.71332 9.42186 5.05582 8.93026C5.4253 8.46039 5.80014 7.99052 6.1831 7.52879C6.59303 7.09152 6.99218 6.64337 7.41019 6.21424C7.85248 5.81227 8.28936 5.39672 8.74243 5.00561C9.21439 4.63895 9.67286 4.25057 10.1583 3.9002C10.6599 3.57156 11.1481 3.22935 11.6578 2.91701C12.1783 2.62368 12.6934 2.32219 13.2273 2.05603C15.3606 0.991347 17.661 0.277034 19.9992 0C17.7446 0.676288 15.5871 1.57258 13.5834 2.7296C13.3298 2.86812 13.0925 3.03651 12.8471 3.18589L12.1109 3.64218C11.6308 3.96267 11.1723 4.31304 10.7031 4.64711C10.25 5.0029 9.80771 5.37228 9.36003 5.73351C8.92853 6.11647 8.51862 6.52116 8.09521 6.91226C7.68798 7.31966 7.29962 7.74608 6.90048 8.16163C6.52292 8.59891 6.16693 9.05248 5.79207 9.49248L4.76454 10.8885C4.4544 11.3774 4.14426 11.8663 3.82603 12.3524C2.62322 14.346 1.68472 16.4998 0.967346 18.7568Z" fill="url(#paint5_linear_1331_1056)"/>
<path d="M29.8751 36.9215C29.8374 36.9215 29.8023 36.9215 29.7645 36.9215C27.936 36.8916 26.2316 36.1474 24.9587 34.8275C23.6884 33.5048 23.0035 31.7638 23.0304 29.9251C23.0601 28.0836 23.7963 26.3671 25.1097 25.0851C27.8174 22.4424 32.1594 22.5103 34.7834 25.2372C36.0563 26.5599 36.7414 28.3009 36.7117 30.1396C36.682 31.9811 35.9458 33.6976 34.6324 34.9795C33.3487 36.2343 31.6631 36.9215 29.8751 36.9215ZM29.8724 25.316C28.6966 25.316 27.5207 25.756 26.6146 26.6441C24.7591 28.453 24.7133 31.446 26.5094 33.3146C27.3805 34.2191 28.5482 34.7297 29.7996 34.7487C31.0482 34.7704 32.2349 34.2951 33.1329 33.4206C34.031 32.5433 34.538 31.3672 34.5569 30.107C34.5758 28.8468 34.1092 27.6545 33.2381 26.75C32.3185 25.794 31.0968 25.316 29.8724 25.316Z" fill="#0158DB"/>
<path d="M29.8751 36.9215C29.8374 36.9215 29.8023 36.9215 29.7645 36.9215C27.936 36.8916 26.2316 36.1474 24.9587 34.8275C23.6884 33.5048 23.0035 31.7638 23.0304 29.9251C23.0601 28.0836 23.7963 26.3671 25.1097 25.0851C27.8174 22.4424 32.1594 22.5103 34.7834 25.2372C36.0563 26.5599 36.7414 28.3009 36.7117 30.1396C36.682 31.9811 35.9458 33.6976 34.6324 34.9795C33.3487 36.2343 31.6631 36.9215 29.8751 36.9215ZM29.8724 25.316C28.6966 25.316 27.5207 25.756 26.6146 26.6441C24.7591 28.453 24.7133 31.446 26.5094 33.3146C27.3805 34.2191 28.5482 34.7297 29.7996 34.7487C31.0482 34.7704 32.2349 34.2951 33.1329 33.4206C34.031 32.5433 34.538 31.3672 34.5569 30.107C34.5758 28.8468 34.1092 27.6545 33.2381 26.75C32.3185 25.794 31.0968 25.316 29.8724 25.316Z" fill="url(#paint6_linear_1331_1056)"/>
<path d="M30.0667 13.8462C28.2382 13.8462 26.5203 13.1292 25.2285 11.8282C22.5613 9.14211 22.5613 4.77204 25.2285 2.08318C26.5203 0.782211 28.2382 0.0651855 30.0667 0.0651855C31.8952 0.0651855 33.6131 0.782211 34.9049 2.08318C36.1967 3.38415 36.9087 5.11426 36.9087 6.95571C36.9087 8.79717 36.1967 10.5273 34.9049 11.8282C33.6104 13.1292 31.8925 13.8462 30.0667 13.8462ZM30.0667 2.238C28.8154 2.238 27.6395 2.72959 26.7549 3.62045C24.9292 5.45919 24.9292 8.45224 26.7549 10.291C27.6395 11.1818 28.8154 11.6734 30.0667 11.6734C31.3181 11.6734 32.4939 11.1818 33.3785 10.291C34.2631 9.40013 34.7512 8.21594 34.7512 6.95571C34.7512 5.69548 34.2631 4.5113 33.3785 3.62045C32.4939 2.72959 31.3181 2.238 30.0667 2.238Z" fill="#0158DB"/>
<path d="M30.0667 13.8462C28.2382 13.8462 26.5203 13.1292 25.2285 11.8282C22.5613 9.14211 22.5613 4.77204 25.2285 2.08318C26.5203 0.782211 28.2382 0.0651855 30.0667 0.0651855C31.8952 0.0651855 33.6131 0.782211 34.9049 2.08318C36.1967 3.38415 36.9087 5.11426 36.9087 6.95571C36.9087 8.79717 36.1967 10.5273 34.9049 11.8282C33.6104 13.1292 31.8925 13.8462 30.0667 13.8462ZM30.0667 2.238C28.8154 2.238 27.6395 2.72959 26.7549 3.62045C24.9292 5.45919 24.9292 8.45224 26.7549 10.291C27.6395 11.1818 28.8154 11.6734 30.0667 11.6734C31.3181 11.6734 32.4939 11.1818 33.3785 10.291C34.2631 9.40013 34.7512 8.21594 34.7512 6.95571C34.7512 5.69548 34.2631 4.5113 33.3785 3.62045C32.4939 2.72959 31.3181 2.238 30.0667 2.238Z" fill="url(#paint7_linear_1331_1056)"/>
<path d="M28.9637 12.3939L28.8869 24.3416L31.0444 24.3557L31.1212 12.4079L28.9637 12.3939Z" fill="#0158DB"/>
<path d="M28.9637 12.3939L28.8869 24.3416L31.0444 24.3557L31.1212 12.4079L28.9637 12.3939Z" fill="url(#paint8_linear_1331_1056)"/>
<path d="M6.84114 36.582C6.80338 36.582 6.76831 36.582 6.73056 36.582C4.90207 36.5521 3.19766 35.8079 1.92473 34.4879C-0.69933 31.7583 -0.631925 27.3883 2.07574 24.7456C4.78341 22.1029 9.12538 22.1708 11.7494 24.8977C14.3735 27.6273 14.3061 31.9973 11.5957 34.64C10.3147 35.8948 8.62647 36.582 6.84114 36.582ZM6.83844 24.9764C5.6626 24.9764 4.48677 25.4164 3.58062 26.3046C1.72517 28.1161 1.67932 31.1065 3.47544 32.9751C4.34653 33.8795 5.51427 34.3901 6.76562 34.4092C8.01966 34.4309 9.20089 33.9556 10.099 33.081C11.9544 31.2722 12.0003 28.2791 10.2041 26.4105C9.2845 25.4572 8.06282 24.9764 6.83844 24.9764Z" fill="#0158DB"/>
<path d="M6.84114 36.582C6.80338 36.582 6.76831 36.582 6.73056 36.582C4.90207 36.5521 3.19766 35.8079 1.92473 34.4879C-0.69933 31.7583 -0.631925 27.3883 2.07574 24.7456C4.78341 22.1029 9.12538 22.1708 11.7494 24.8977C14.3735 27.6273 14.3061 31.9973 11.5957 34.64C10.3147 35.8948 8.62647 36.582 6.84114 36.582ZM6.83844 24.9764C5.6626 24.9764 4.48677 25.4164 3.58062 26.3046C1.72517 28.1161 1.67932 31.1065 3.47544 32.9751C4.34653 33.8795 5.51427 34.3901 6.76562 34.4092C8.01966 34.4309 9.20089 33.9556 10.099 33.081C11.9544 31.2722 12.0003 28.2791 10.2041 26.4105C9.2845 25.4572 8.06282 24.9764 6.83844 24.9764Z" fill="url(#paint9_linear_1331_1056)"/>
<path d="M12.2699 28.5461L12.2499 30.7189L24.2187 30.8305L24.2387 28.6577L12.2699 28.5461Z" fill="#0158DB"/>
<path d="M12.2699 28.5461L12.2499 30.7189L24.2187 30.8305L24.2387 28.6577L12.2699 28.5461Z" fill="url(#paint10_linear_1331_1056)"/>
<path d="M52.1432 36.582C51.2047 36.582 50.25 36.3865 49.3411 35.9736C45.9026 34.4119 44.3654 30.3243 45.9161 26.8587C47.4668 23.3958 51.5283 21.8504 54.9668 23.4093C56.6335 24.1671 57.9064 25.5306 58.5537 27.2525C59.2009 28.9745 59.1416 30.8458 58.3919 32.5243C57.2484 35.0719 54.7511 36.582 52.1432 36.582ZM52.1594 24.9738C50.3714 24.9738 48.6642 26.0086 47.8821 27.7523C46.8195 30.1233 47.8713 32.9235 50.2257 33.9909C52.5801 35.0611 55.3606 34.0018 56.4204 31.6307C57.483 29.2596 56.4312 26.4594 54.0769 25.392C53.4539 25.1096 52.8013 24.9738 52.1594 24.9738Z" fill="#0158DB"/>
<path d="M52.1432 36.582C51.2047 36.582 50.25 36.3865 49.3411 35.9736C45.9026 34.4119 44.3654 30.3243 45.9161 26.8587C47.4668 23.3958 51.5283 21.8504 54.9668 23.4093C56.6335 24.1671 57.9064 25.5306 58.5537 27.2525C59.2009 28.9745 59.1416 30.8458 58.3919 32.5243C57.2484 35.0719 54.7511 36.582 52.1432 36.582ZM52.1594 24.9738C50.3714 24.9738 48.6642 26.0086 47.8821 27.7523C46.8195 30.1233 47.8713 32.9235 50.2257 33.9909C52.5801 35.0611 55.3606 34.0018 56.4204 31.6307C57.483 29.2596 56.4312 26.4594 54.0769 25.392C53.4539 25.1096 52.8013 24.9738 52.1594 24.9738Z" fill="url(#paint11_linear_1331_1056)"/>
<path d="M36.1088 28.3645L36.075 30.537L46.7158 30.7053L46.7496 28.5327L36.1088 28.3645Z" fill="#0158DB"/>
<path d="M36.1088 28.3645L36.075 30.537L46.7158 30.7053L46.7496 28.5327L36.1088 28.3645Z" fill="url(#paint12_linear_1331_1056)"/>
<path d="M30.0667 58.9999C28.2382 58.9999 26.5202 58.2829 25.2284 56.9819C22.5612 54.2958 22.5612 49.923 25.2284 47.2369C26.5202 45.9359 28.2382 45.2189 30.0667 45.2189C31.8951 45.2189 33.613 45.9359 34.9048 47.2369C36.1966 48.5378 36.9086 50.2679 36.9086 52.1094C36.9086 53.9509 36.1966 55.681 34.9048 56.9819C33.6103 58.2829 31.8924 58.9999 30.0667 58.9999ZM30.0667 47.3917C28.8153 47.3917 27.6395 47.8833 26.7549 48.7741C24.9291 50.6129 24.9291 53.6059 26.7549 55.4447C27.6395 56.3355 28.8153 56.8271 30.0667 56.8271C31.318 56.8271 32.4939 56.3355 33.3784 55.4447C34.263 54.5538 34.7511 53.3696 34.7511 52.1094C34.7511 50.8492 34.263 49.665 33.3784 48.7741C32.4939 47.8833 31.318 47.3917 30.0667 47.3917Z" fill="#0158DB"/>
<path d="M30.0667 58.9999C28.2382 58.9999 26.5202 58.2829 25.2284 56.9819C22.5612 54.2958 22.5612 49.923 25.2284 47.2369C26.5202 45.9359 28.2382 45.2189 30.0667 45.2189C31.8951 45.2189 33.613 45.9359 34.9048 47.2369C36.1966 48.5378 36.9086 50.2679 36.9086 52.1094C36.9086 53.9509 36.1966 55.681 34.9048 56.9819C33.6103 58.2829 31.8924 58.9999 30.0667 58.9999ZM30.0667 47.3917C28.8153 47.3917 27.6395 47.8833 26.7549 48.7741C24.9291 50.6129 24.9291 53.6059 26.7549 55.4447C27.6395 56.3355 28.8153 56.8271 30.0667 56.8271C31.318 56.8271 32.4939 56.3355 33.3784 55.4447C34.263 54.5538 34.7511 53.3696 34.7511 52.1094C34.7511 50.8492 34.263 49.665 33.3784 48.7741C32.4939 47.8833 31.318 47.3917 30.0667 47.3917Z" fill="url(#paint13_linear_1331_1056)"/>
<path d="M31.2748 35.8351H29.1173V46.6584H31.2748V35.8351Z" fill="#0158DB"/>
<path d="M31.2748 35.8351H29.1173V46.6584H31.2748V35.8351Z" fill="url(#paint14_linear_1331_1056)"/>
<defs>
<linearGradient id="paint0_linear_1331_1056" x1="37.5415" y1="34.865" x2="49.2319" y2="59.198" gradientUnits="userSpaceOnUse">
<stop offset="0.181437" stop-color="#5F68E3"/>
<stop offset="0.666313" stop-color="#FE007A"/>
<stop offset="1" stop-color="#FF4848"/>
</linearGradient>
<linearGradient id="paint1_linear_1331_1056" x1="32.0659" y1="29.7836" x2="44.5709" y2="55.9097" gradientUnits="userSpaceOnUse">
<stop offset="0.181437" stop-color="#5F68E3"/>
<stop offset="0.666313" stop-color="#FE007A"/>
<stop offset="1" stop-color="#FF4848"/>
</linearGradient>
<linearGradient id="paint2_linear_1331_1056" x1="1.03281" y1="29.7081" x2="13.3882" y2="56.6403" gradientUnits="userSpaceOnUse">
<stop offset="0.181437" stop-color="#5F68E3"/>
<stop offset="0.666313" stop-color="#FE007A"/>
<stop offset="1" stop-color="#FF4848"/>
</linearGradient>
<linearGradient id="paint3_linear_1331_1056" x1="32.0547" y1="-0.898702" x2="44.8813" y2="25.5246" gradientUnits="userSpaceOnUse">
<stop offset="0.181437" stop-color="#5F68E3"/>
<stop offset="0.666313" stop-color="#FE007A"/>
<stop offset="1" stop-color="#FF4848"/>
</linearGradient>
<linearGradient id="paint4_linear_1331_1056" x1="0.900182" y1="-1.2758" x2="13.5489" y2="25.9964" gradientUnits="userSpaceOnUse">
<stop offset="0.181437" stop-color="#5F68E3"/>
<stop offset="0.666313" stop-color="#FE007A"/>
<stop offset="1" stop-color="#FF4848"/>
</linearGradient>
<linearGradient id="paint5_linear_1331_1056" x1="-2.35129" y1="-5.13283" x2="9.45747" y2="20.3775" gradientUnits="userSpaceOnUse">
<stop offset="0.181437" stop-color="#5F68E3"/>
<stop offset="0.666313" stop-color="#FE007A"/>
<stop offset="1" stop-color="#FF4848"/>
</linearGradient>
<linearGradient id="paint6_linear_1331_1056" x1="16.0545" y1="20.8208" x2="40.5861" y2="39.2595" gradientUnits="userSpaceOnUse">
<stop offset="0.734419" stop-color="#11DEF7"/>
<stop offset="0.762841" stop-color="#1C32FF"/>
<stop offset="0.984375" stop-color="#FF6DCE"/>
</linearGradient>
<linearGradient id="paint7_linear_1331_1056" x1="16.2541" y1="-2.26182" x2="40.7926" y2="16.1705" gradientUnits="userSpaceOnUse">
<stop offset="0.734419" stop-color="#11DEF7"/>
<stop offset="0.762841" stop-color="#1C32FF"/>
<stop offset="0.984375" stop-color="#FF6DCE"/>
</linearGradient>
<linearGradient id="paint8_linear_1331_1056" x1="28.4834" y1="30.4298" x2="36.0638" y2="28.6723" gradientUnits="userSpaceOnUse">
<stop offset="0.734419" stop-color="#11DEF7"/>
<stop offset="0.762841" stop-color="#1C32FF"/>
<stop offset="0.984375" stop-color="#FF6DCE"/>
</linearGradient>
<linearGradient id="paint9_linear_1331_1056" x1="-6.97053" y1="20.4812" x2="17.5566" y2="38.9043" gradientUnits="userSpaceOnUse">
<stop offset="0.734419" stop-color="#11DEF7"/>
<stop offset="0.762841" stop-color="#1C32FF"/>
<stop offset="0.984375" stop-color="#FF6DCE"/>
</linearGradient>
<linearGradient id="paint10_linear_1331_1056" x1="10.2188" y1="31.8077" x2="11.0965" y2="25.832" gradientUnits="userSpaceOnUse">
<stop offset="0.734419" stop-color="#11DEF7"/>
<stop offset="0.762841" stop-color="#1C32FF"/>
<stop offset="0.984375" stop-color="#FF6DCE"/>
</linearGradient>
<linearGradient id="paint11_linear_1331_1056" x1="38.3339" y1="20.475" x2="62.8751" y2="38.9207" gradientUnits="userSpaceOnUse">
<stop offset="0.734419" stop-color="#11DEF7"/>
<stop offset="0.762841" stop-color="#1C32FF"/>
<stop offset="0.984375" stop-color="#FF6DCE"/>
</linearGradient>
<linearGradient id="paint12_linear_1331_1056" x1="34.2609" y1="31.6162" x2="35.2748" y2="25.6773" gradientUnits="userSpaceOnUse">
<stop offset="0.734419" stop-color="#11DEF7"/>
<stop offset="0.762841" stop-color="#1C32FF"/>
<stop offset="0.984375" stop-color="#FF6DCE"/>
</linearGradient>
<linearGradient id="paint13_linear_1331_1056" x1="16.2541" y1="42.8919" x2="40.7926" y2="61.3242" gradientUnits="userSpaceOnUse">
<stop offset="0.734419" stop-color="#11DEF7"/>
<stop offset="0.762841" stop-color="#1C32FF"/>
<stop offset="0.984375" stop-color="#FF6DCE"/>
</linearGradient>
<linearGradient id="paint14_linear_1331_1056" x1="28.0175" y1="34.0075" x2="33.9362" y2="34.9003" gradientUnits="userSpaceOnUse">
<stop offset="0.734419" stop-color="#11DEF7"/>
<stop offset="0.762841" stop-color="#1C32FF"/>
<stop offset="0.984375" stop-color="#FF6DCE"/>
</linearGradient>
</defs>
</svg>
