<svg width="60" height="60" viewBox="0 0 60 60" fill="none" xmlns="http://www.w3.org/2000/svg">
<g clip-path="url(#clip0_168_149)">
<path d="M55.1434 15.449C55.1126 13.8291 55.0832 12.2988 55.0832 10.8183C55.0832 9.65848 54.1432 8.71818 52.9831 8.71818C44.0014 8.71818 37.163 6.13695 31.4629 0.594781C30.6475 -0.198237 29.3499 -0.197957 28.5347 0.594781C22.8352 6.13695 15.9979 8.71818 7.01684 8.71818C5.857 8.71818 4.91669 9.65848 4.91669 10.8183C4.91669 12.2991 4.88756 13.83 4.85648 15.4501C4.56862 30.5253 4.17435 51.1715 29.311 59.8844C29.5339 59.9616 29.7663 60.0003 29.9987 60.0003C30.2311 60.0003 30.4638 59.9616 30.6864 59.8844C55.825 51.1712 55.4313 30.5245 55.1434 15.449ZM29.999 55.6715C8.44102 47.8401 8.76697 30.6847 9.05623 15.5302C9.07359 14.6207 9.09039 13.7392 9.10215 12.8751C17.514 12.52 24.2406 9.97099 29.999 4.9547C35.7579 9.97099 42.4856 12.5203 50.898 12.8751C50.9098 13.7389 50.9266 14.6199 50.9439 15.5288C51.2329 30.6838 51.5586 47.8398 29.999 55.6715Z" fill="white"/>
<path d="M37.2311 22.7046L27.0946 32.8405L22.7691 28.515C21.9489 27.6951 20.6191 27.6951 19.7992 28.515C18.979 29.3355 18.979 30.665 19.7992 31.4852L25.6096 37.2956C26.0196 37.7056 26.5572 37.9106 27.0946 37.9106C27.632 37.9106 28.1696 37.7056 28.5795 37.2956L40.2007 25.6748C41.0211 24.8546 41.0211 23.5248 40.201 22.7049C39.3811 21.8847 38.0512 21.8844 37.2311 22.7046Z" fill="white"/>
</g>
<defs>
<clipPath id="clip0_168_149">
<rect width="60" height="60" fill="white"/>
</clipPath>
</defs>
</svg>
