<svg width="60" height="60" viewBox="0 0 60 60" fill="none" xmlns="http://www.w3.org/2000/svg">
<g clip-path="url(#clip0_168_178)">
<path d="M59.0944 37.2602C55.0894 53.3352 38.8119 63.1102 22.7394 59.1002C6.67441 55.1252 -3.11059 38.8127 0.904408 22.7627C4.90441 6.67522 21.1869 -3.10728 37.2494 0.895224C53.3244 4.90772 63.1044 21.1827 59.0944 37.2652V37.2602ZM43.2194 25.7277C43.8194 21.7527 40.7844 19.6027 36.6194 18.1527L37.9694 12.7702L34.6819 11.9452L33.3694 17.2127C32.5069 16.9952 31.6069 16.7952 30.7094 16.5877L32.0244 11.2702L28.7244 10.4452L27.3744 15.8577C26.6619 15.6902 25.9619 15.5277 25.2744 15.3577L20.7369 14.2327L19.8619 17.7502C19.8619 17.7502 22.2994 18.3127 22.2494 18.3402C23.5869 18.6802 23.8244 19.5552 23.7869 20.2552L20.0944 35.0552C19.9069 35.4702 19.4944 36.0702 18.5594 35.8402C18.5969 35.8902 16.1594 35.2402 16.1594 35.2402L14.5094 39.0152L18.7844 40.0802L21.1094 40.6852L19.7594 46.1602L23.0594 46.9777L24.4094 41.5527C25.3094 41.8027 26.1719 42.0277 27.0344 42.2352L25.7594 47.6202L29.0594 48.4452L30.4219 42.9702C36.0219 44.0377 40.2469 43.6127 42.0219 38.5352C43.4469 34.4427 41.9469 32.0852 38.9794 30.5452C41.1144 30.0627 42.7294 28.6452 43.1794 25.7202H43.2044L43.2194 25.7277ZM35.6944 36.2777C34.6844 40.3777 27.8019 38.1527 25.5694 37.6027L27.3694 30.3527C29.6094 30.9277 36.7619 32.0277 35.6944 36.2777ZM36.7194 25.6777C35.7944 29.4027 30.0644 27.5152 28.2069 27.0527L29.8419 20.4527C31.7019 20.9027 37.6844 21.7627 36.7169 25.6627V25.6777H36.7194Z" fill="white"/>
</g>
<defs>
<clipPath id="clip0_168_178">
<rect width="60" height="60" fill="white"/>
</clipPath>
</defs>
</svg>
