<svg width="70" height="70" viewBox="0 0 70 70" fill="none" xmlns="http://www.w3.org/2000/svg">
<path d="M30.9324 27.503L33.5155 28.1317C34.5037 28.3746 35.4563 28.7569 36.3447 29.2713L38.6459 30.6037L40.0801 32.8507C40.6759 33.7831 41.1219 34.794 41.4038 35.8478L42.0923 38.4127L41.5215 41.0205C41.286 42.0993 40.8829 43.1353 40.3299 44.0962L38.9991 46.4004L36.755 47.8364C35.7524 48.4794 34.6607 48.9474 33.5155 49.226L30.9324 49.8548L28.3493 49.226C27.2398 48.9545 26.1837 48.5116 25.2133 47.9043L22.9549 46.4932L21.5956 44.2034C21.0105 43.2139 20.5859 42.1422 20.3398 41.0169L19.7689 38.4092L20.4575 35.8443C20.7322 34.8226 21.1532 33.8509 21.7169 32.9471L23.1262 30.6859L25.4131 29.3248C26.3264 28.7819 27.3147 28.3782 28.3458 28.1281L30.9324 27.503ZM36.1342 7.20886H25.7306V17.3649C23.6042 17.8828 21.5992 18.7116 19.7654 19.8012L12.5942 12.6995L5.28029 20.1048L12.3302 27.085C11.2063 28.889 10.3394 30.8681 9.77208 32.9686H0V43.3854H9.52945C10.0361 45.7002 10.9066 47.8793 12.0804 49.8583L5.48363 56.5385L12.8796 63.8617L19.3551 57.303C21.2959 58.514 23.4401 59.432 25.7271 59.9893V69.1487H36.1306V59.9893C38.4996 59.4106 40.7152 58.4497 42.7131 57.1708L49.2671 63.6581L56.581 56.2527L49.9057 49.644C51.0153 47.7221 51.843 45.6216 52.3318 43.3889H61.8613V32.9722H52.0892C51.5041 30.7895 50.5871 28.7426 49.4026 26.8814L56.3776 19.819L48.9817 12.4958L41.8854 19.6797C40.1087 18.6509 38.1785 17.865 36.1306 17.3649V7.20886H36.1342Z" fill="#F7528E"/>
<path d="M30.9324 27.503L33.5155 28.1317C34.5037 28.3746 35.4563 28.7569 36.3447 29.2713L38.6459 30.6037L40.0801 32.8507C40.6759 33.7831 41.1219 34.794 41.4038 35.8478L42.0923 38.4127L41.5215 41.0205C41.286 42.0993 40.8829 43.1353 40.3299 44.0962L38.9991 46.4004L36.755 47.8364C35.7524 48.4794 34.6607 48.9474 33.5155 49.226L30.9324 49.8548L28.3493 49.226C27.2398 48.9545 26.1837 48.5116 25.2133 47.9043L22.9549 46.4932L21.5956 44.2034C21.0105 43.2139 20.5859 42.1422 20.3398 41.0169L19.7689 38.4092L20.4575 35.8443C20.7322 34.8226 21.1532 33.8509 21.7169 32.9471L23.1262 30.6859L25.4131 29.3248C26.3264 28.7819 27.3147 28.3782 28.3458 28.1281L30.9324 27.503ZM36.1342 7.20886H25.7306V17.3649C23.6042 17.8828 21.5992 18.7116 19.7654 19.8012L12.5942 12.6995L5.28029 20.1048L12.3302 27.085C11.2063 28.889 10.3394 30.8681 9.77208 32.9686H0V43.3854H9.52945C10.0361 45.7002 10.9066 47.8793 12.0804 49.8583L5.48363 56.5385L12.8796 63.8617L19.3551 57.303C21.2959 58.514 23.4401 59.432 25.7271 59.9893V69.1487H36.1306V59.9893C38.4996 59.4106 40.7152 58.4497 42.7131 57.1708L49.2671 63.6581L56.581 56.2527L49.9057 49.644C51.0153 47.7221 51.843 45.6216 52.3318 43.3889H61.8613V32.9722H52.0892C51.5041 30.7895 50.5871 28.7426 49.4026 26.8814L56.3776 19.819L48.9817 12.4958L41.8854 19.6797C40.1087 18.6509 38.1785 17.865 36.1306 17.3649V7.20886H36.1342Z" fill="url(#paint0_linear_1331_636)"/>
<path d="M66.535 6.29436C68.2709 6.29436 69.6782 4.88532 69.6782 3.14718C69.6782 1.40904 68.2709 0 66.535 0C64.7991 0 63.3918 1.40904 63.3918 3.14718C63.3918 4.88532 64.7991 6.29436 66.535 6.29436Z" fill="#0158DB"/>
<defs>
<linearGradient id="paint0_linear_1331_636" x1="-13.3576" y1="-4.51964" x2="33.4292" y2="80.3469" gradientUnits="userSpaceOnUse">
<stop offset="0.181437" stop-color="#517CE6"/>
<stop offset="0.644519" stop-color="#FE007A"/>
<stop offset="1" stop-color="#FF4848"/>
</linearGradient>
</defs>
</svg>
