<svg width="60" height="60" viewBox="0 0 60 60" fill="none" xmlns="http://www.w3.org/2000/svg">
<path d="M30.0124 5C36.7122 5 42.2204 10.2648 42.5 16.9358H42.4347C42.4425 17.1297 42.4053 17.3228 42.3258 17.5H42.7161C45.7587 17.5 48.9446 19.6088 50.2221 24.6995L50.3609 25.3002L52.2832 40.7868C53.6665 50.6644 48.2624 54.8182 40.8905 54.9941L40.3962 55H19.6713C12.1794 55 6.40636 52.2699 7.6757 41.4589L7.76226 40.7868L9.7066 25.3002C10.6654 19.818 13.884 17.6556 16.9853 17.5082L17.3293 17.5H17.5247C17.4918 17.3134 17.4918 17.1224 17.5247 16.9358C17.8043 10.2648 23.3125 5 30.0124 5ZM22.7425 25.8232C21.5222 25.8232 20.533 26.8414 20.533 28.0973C20.533 29.3533 21.5222 30.3714 22.7425 30.3714C23.9628 30.3714 24.952 29.3533 24.952 28.0973L24.9348 27.8121C24.7984 26.6908 23.8689 25.8232 22.7425 25.8232ZM37.2145 25.8232C35.9943 25.8232 35.0051 26.8414 35.0051 28.0973C35.0051 29.3533 35.9943 30.3714 37.2145 30.3714C38.4348 30.3714 39.424 29.3533 39.424 28.0973C39.424 26.8414 38.4348 25.8232 37.2145 25.8232ZM29.9144 8.25596C25.1041 8.25596 21.2046 12.1421 21.2046 16.9358C21.2376 17.1224 21.2376 17.3134 21.2046 17.5H38.733C38.6634 17.3199 38.6266 17.1288 38.6242 16.9358C38.6242 12.1421 34.7247 8.25596 29.9144 8.25596Z" fill="white"/>
</svg>
